<svg width="98" height="94" viewBox="0 0 98 94" fill="none" xmlns="http://www.w3.org/2000/svg">
<path d="M21.2988 60.7192L13.9729 72.803H27.5195C24.5513 69.3866 22.3882 65.2585 21.2988 60.7192Z" fill="#66D5BB"/>
<path d="M70.3698 72.7871H83.9164L76.5905 60.7034C75.501 65.2585 73.338 69.3866 70.3698 72.7871Z" fill="#66D5BB"/>
<path d="M48.9447 25.6226C51.313 25.6226 53.6023 25.9073 55.8127 26.4608L48.9447 15.1521L42.0767 26.4608C44.2871 25.9073 46.5764 25.6226 48.9447 25.6226Z" fill="#66D5BB"/>
<path d="M20.5252 54.4559C20.5252 54.3294 20.5252 54.2029 20.5252 54.0921C20.5252 42.9574 26.9037 33.3252 36.1874 28.6435L44.587 14.7883C24.8512 16.9552 9.47314 33.7206 9.47314 54.0921C9.47314 59.1059 10.4047 63.9141 12.1098 68.3269L20.5252 54.4559Z" fill="#0B213E"/>
<path d="M61.7018 28.6435C70.9855 33.3252 77.3641 42.9574 77.3641 54.0921C77.3641 54.2187 77.3641 54.3452 77.3641 54.4559L85.7794 68.3269C87.4846 63.9141 88.4161 59.1059 88.4161 54.0921C88.4161 33.7206 73.038 16.9552 53.2865 14.7883L61.7018 28.6435Z" fill="#0B213E"/>
<path d="M66.8489 76.2034C61.9544 80.1733 55.7337 82.5616 48.9446 82.5616C42.1555 82.5616 35.9348 80.1733 31.0403 76.2034H16.2148C23.3039 86.7213 35.319 93.6331 48.9446 93.6331C62.5702 93.6331 74.5853 86.7213 81.6743 76.2034H66.8489Z" fill="#0B213E"/>
<path d="M44.6028 14.7884L48.9446 7.62352L53.2865 14.7884C55.0548 14.9782 56.7916 15.2945 58.4809 15.7215L48.9446 0L39.4083 15.7215C41.0977 15.2945 42.8344 14.9782 44.6028 14.7884Z" fill="#66D5BB"/>
<path d="M78.1693 80.6637H97.8893L87.3425 63.2815C86.932 65.0055 86.411 66.6978 85.7794 68.3269L90.5476 76.1877H81.6744C80.6165 77.7693 79.4482 79.2561 78.1693 80.6637Z" fill="#66D5BB"/>
<path d="M16.2149 76.2035H7.3417L12.1099 68.3269C11.4783 66.6978 10.9573 65.0055 10.5468 63.2815L0 80.6637H19.72C18.4411 79.2561 17.2727 77.7693 16.2149 76.2035Z" fill="#66D5BB"/>
</svg>
